<svg width="500" height="80" viewBox="0 0 500 80" xmlns="http://www.w3.org/2000/svg">
  <g fill="#dc2626">
    <!-- V -->
    <polygon points="20,15 35,15 47,55 52,55 64,15 79,15 60,70 39,70"/>
    
    <!-- O -->
    <path d="M 95 15 L 125 15 Q 140 15 140 30 L 140 55 Q 140 70 125 70 L 95 70 Q 80 70 80 55 L 80 30 Q 80 15 95 15 Z M 95 27 Q 92 27 92 30 L 92 55 Q 92 58 95 58 L 125 58 Q 128 58 128 55 L 128 30 Q 128 27 125 27 Z"/>
    
    <!-- L -->
    <polygon points="155,15 170,15 170,58 200,58 200,70 155,70"/>
    
    <!-- K -->
    <polygon points="215,15 230,15 230,38 245,15 265,15 245,42 270,70 250,70 235,50 230,50 230,70 215,70"/>
    
    <!-- S -->
    <path d="M 285 15 L 315 15 Q 330 15 330 30 Q 330 38 322 40 Q 330 42 330 50 Q 330 70 315 70 L 285 70 Q 270 70 270 55 L 282 55 Q 282 58 285 58 L 315 58 Q 318 58 318 55 Q 318 50 315 50 L 295 50 L 295 35 L 315 35 Q 318 35 318 30 Q 318 27 315 27 L 285 27 Q 282 27 282 30 L 270 30 Q 270 15 285 15 Z"/>
    
    <!-- - -->
    <rect x="345" y="38" width="25" height="12"/>
    
    <!-- T -->
    <polygon points="385,15 455,15 455,27 427,27 427,70 412,70 412,27 385,27"/>
    
    <!-- Y -->
    <polygon points="470,15 485,15 485,38 495,15 510,15 495,42 495,70 480,70 480,42 465,15"/>
    
    <!-- P -->
    <polygon points="525,15 555,15 570,15 570,42 555,42 525,42 525,70 510,70 510,15 525,15"/>
    <polygon points="525,27 525,30 555,30 558,30 558,27 555,27"/>
    
    <!-- O -->
    <path d="M 585 15 L 615 15 Q 630 15 630 30 L 630 55 Q 630 70 615 70 L 585 70 Q 570 70 570 55 L 570 30 Q 570 15 585 15 Z M 585 27 Q 582 27 582 30 L 582 55 Q 582 58 585 58 L 615 58 Q 618 58 618 55 L 618 30 Q 618 27 615 27 Z"/>
  </g>
</svg>